<svg xmlns="http://www.w3.org/2000/svg" xmlns:xlink="http://www.w3.org/1999/xlink" width="500" zoomAndPan="magnify" viewBox="0 0 375 374.999991" height="500" preserveAspectRatio="xMidYMid meet" version="1.0"><defs><g/><clipPath id="4979ec114a"><path d="M 130.703125 115.761719 L 243.953125 115.761719 L 243.953125 229.011719 L 130.703125 229.011719 Z M 130.703125 115.761719 " clip-rule="nonzero"/></clipPath></defs><g clip-path="url(#4979ec114a)"><path fill="#6ca1f1" d="M 208.875 175.863281 L 208.875 201.832031 C 208.875 201.832031 209.316406 206.171875 205.066406 206.171875 C 200.816406 206.171875 200.015625 202.273438 200.015625 202.273438 L 200.015625 175.859375 C 194.589844 173.339844 190.664062 166.433594 190.664062 158.214844 C 190.664062 147.871094 196.832031 139.488281 204.449219 139.488281 C 212.066406 139.488281 218.242188 147.871094 218.242188 158.214844 C 218.242188 166.441406 214.308594 173.351562 208.875 175.863281 Z M 174.902344 176.9375 L 174.902344 200.59375 C 174.902344 200.59375 175 205.6875 170.769531 205.6875 C 166.539062 205.6875 166.539062 200.691406 166.539062 200.691406 L 166.539062 176.839844 C 166.539062 176.839844 157.746094 175.203125 156.976562 166.550781 C 156.207031 157.886719 157.652344 142.984375 157.652344 142.984375 C 157.652344 142.984375 158.230469 139.902344 160.246094 139.902344 C 162.269531 139.902344 162.652344 143.273438 162.652344 143.273438 L 162.652344 161.445312 C 162.53125 162.621094 163.859375 163.945312 165.824219 163.945312 C 168.519531 163.945312 168.519531 162.023438 168.519531 162.023438 L 168.519531 143.460938 C 168.519531 143.460938 168.90625 139.617188 171.214844 139.617188 C 173.519531 139.617188 173.519531 143.558594 173.519531 143.558594 L 173.519531 162.238281 C 173.519531 162.238281 173.457031 164.398438 175.9375 164.398438 C 179.011719 164.398438 178.953125 162.382812 178.953125 162.382812 L 178.953125 143.460938 C 178.953125 143.460938 178.714844 138.945312 181.984375 138.945312 C 184.582031 138.945312 184.679688 143.367188 184.679688 143.367188 C 184.679688 143.367188 184.929688 164.46875 184.929688 167.066406 C 184.929688 169.664062 182.308594 174.339844 174.902344 176.9375 Z M 187.5 115.765625 C 156.183594 115.765625 130.707031 141.242188 130.707031 172.558594 C 130.707031 203.871094 156.183594 229.347656 187.5 229.347656 C 218.8125 229.347656 244.289062 203.871094 244.289062 172.558594 C 244.289062 141.242188 218.8125 115.765625 187.5 115.765625 " fill-opacity="1" fill-rule="nonzero"/></g><g fill="#87cb28" fill-opacity="0.4"><g transform="translate(111.48097, 264.718372)"><g><path d="M 2.171875 -29.9375 L 10.859375 -29.9375 C 15.015625 -29.9375 18.566406 -28.515625 21.515625 -25.671875 C 24.472656 -22.835938 25.953125 -19.273438 25.953125 -14.984375 C 25.953125 -10.679688 24.476562 -7.109375 21.53125 -4.265625 C 18.59375 -1.421875 15.035156 0 10.859375 0 L 2.171875 0 Z M 9 -6.09375 L 10.046875 -6.09375 C 12.546875 -6.09375 14.585938 -6.929688 16.171875 -8.609375 C 17.753906 -10.296875 18.554688 -12.410156 18.578125 -14.953125 C 18.578125 -17.492188 17.785156 -19.609375 16.203125 -21.296875 C 14.617188 -22.992188 12.566406 -23.84375 10.046875 -23.84375 L 9 -23.84375 Z M 9 -6.09375 "/></g></g></g><g fill="#87cb28" fill-opacity="0.4"><g transform="translate(134.707441, 264.718372)"><g><path d="M 2.796875 -29 C 3.546875 -29.75 4.441406 -30.125 5.484375 -30.125 C 6.523438 -30.125 7.421875 -29.75 8.171875 -29 C 8.921875 -28.25 9.296875 -27.351562 9.296875 -26.3125 C 9.296875 -25.269531 8.921875 -24.375 8.171875 -23.625 C 7.421875 -22.875 6.523438 -22.5 5.484375 -22.5 C 4.441406 -22.5 3.546875 -22.875 2.796875 -23.625 C 2.046875 -24.375 1.671875 -25.269531 1.671875 -26.3125 C 1.671875 -27.351562 2.046875 -28.25 2.796875 -29 Z M 2.171875 -18.625 L 2.171875 0 L 8.609375 0 L 8.609375 -18.625 Z M 2.171875 -18.625 "/></g></g></g><g fill="#87cb28" fill-opacity="0.4"><g transform="translate(142.110179, 264.718372)"><g><path d="M 2.171875 0 L 2.171875 -18.625 L 8.609375 -18.625 L 8.609375 -16.65625 L 8.671875 -16.65625 C 10.335938 -18.332031 12.117188 -19.171875 14.015625 -19.171875 C 14.929688 -19.171875 15.84375 -19.046875 16.75 -18.796875 C 17.65625 -18.554688 18.523438 -18.179688 19.359375 -17.671875 C 20.191406 -17.171875 20.867188 -16.453125 21.390625 -15.515625 C 21.910156 -14.585938 22.171875 -13.503906 22.171875 -12.265625 L 22.171875 0 L 15.75 0 L 15.75 -10.53125 C 15.75 -11.5 15.441406 -12.34375 14.828125 -13.0625 C 14.210938 -13.789062 13.40625 -14.15625 12.40625 -14.15625 C 11.445312 -14.15625 10.570312 -13.78125 9.78125 -13.03125 C 9 -12.28125 8.609375 -11.445312 8.609375 -10.53125 L 8.609375 0 Z M 2.171875 0 "/></g></g></g><g fill="#87cb28" fill-opacity="0.4"><g transform="translate(162.542096, 264.718372)"><g><path d="M 21.015625 -8.421875 L 7.515625 -8.421875 C 7.515625 -7.109375 7.9375 -6.140625 8.78125 -5.515625 C 9.625 -4.890625 10.546875 -4.578125 11.546875 -4.578125 C 12.585938 -4.578125 13.410156 -4.710938 14.015625 -4.984375 C 14.617188 -5.265625 15.304688 -5.816406 16.078125 -6.640625 L 20.71875 -4.3125 C 18.789062 -1.070312 15.578125 0.546875 11.078125 0.546875 C 8.265625 0.546875 5.851562 -0.414062 3.84375 -2.34375 C 1.832031 -4.269531 0.828125 -6.585938 0.828125 -9.296875 C 0.828125 -12.003906 1.832031 -14.328125 3.84375 -16.265625 C 5.851562 -18.203125 8.265625 -19.171875 11.078125 -19.171875 C 14.023438 -19.171875 16.421875 -18.316406 18.265625 -16.609375 C 20.117188 -14.898438 21.046875 -12.460938 21.046875 -9.296875 C 21.046875 -8.859375 21.035156 -8.566406 21.015625 -8.421875 Z M 7.6875 -11.984375 L 14.765625 -11.984375 C 14.628906 -12.953125 14.25 -13.691406 13.625 -14.203125 C 13.007812 -14.722656 12.21875 -14.984375 11.25 -14.984375 C 10.1875 -14.984375 9.335938 -14.707031 8.703125 -14.15625 C 8.078125 -13.601562 7.738281 -12.878906 7.6875 -11.984375 Z M 7.6875 -11.984375 "/></g></g></g><g fill="#87cb28" fill-opacity="0.4"><g transform="translate(180.869018, 264.718372)"><g><path d="M 9 -18.578125 L 9 0 L 2.171875 0 L 2.171875 -29.9375 L 9 -29.9375 L 20.90625 -11.359375 L 20.984375 -11.359375 L 20.984375 -29.9375 L 27.796875 -29.9375 L 27.796875 0 L 20.984375 0 L 9.078125 -18.578125 Z M 9 -18.578125 "/></g></g></g><g fill="#87cb28" fill-opacity="0.4"><g transform="translate(207.28927, 264.718372)"><g><path d="M 3.9375 -2.203125 C 1.863281 -4.046875 0.828125 -6.40625 0.828125 -9.28125 C 0.828125 -12.164062 1.90625 -14.535156 4.0625 -16.390625 C 6.21875 -18.242188 8.878906 -19.171875 12.046875 -19.171875 C 15.171875 -19.171875 17.800781 -18.238281 19.9375 -16.375 C 22.082031 -14.507812 23.15625 -12.148438 23.15625 -9.296875 C 23.15625 -6.441406 22.109375 -4.085938 20.015625 -2.234375 C 17.921875 -0.378906 15.265625 0.546875 12.046875 0.546875 C 8.710938 0.546875 6.007812 -0.367188 3.9375 -2.203125 Z M 8.90625 -12.453125 C 8.070312 -11.628906 7.65625 -10.578125 7.65625 -9.296875 C 7.65625 -8.015625 8.050781 -6.96875 8.84375 -6.15625 C 9.644531 -5.34375 10.703125 -4.9375 12.015625 -4.9375 C 13.273438 -4.9375 14.304688 -5.347656 15.109375 -6.171875 C 15.921875 -6.992188 16.328125 -8.035156 16.328125 -9.296875 C 16.328125 -10.578125 15.910156 -11.628906 15.078125 -12.453125 C 14.242188 -13.273438 13.222656 -13.6875 12.015625 -13.6875 C 10.773438 -13.6875 9.738281 -13.273438 8.90625 -12.453125 Z M 8.90625 -12.453125 "/></g></g></g><g fill="#87cb28" fill-opacity="0.4"><g transform="translate(227.72119, 264.718372)"><g><path d="M 13.609375 0 L 9.25 0 L -0.71875 -18.625 L 6.671875 -18.625 L 11.21875 -8.5625 L 15.6875 -18.625 L 20.109375 -18.625 L 24.578125 -8.5625 L 29.109375 -18.625 L 36.515625 -18.625 L 26.53125 0 L 22.171875 0 L 17.890625 -9.625 Z M 13.609375 0 "/></g></g></g><g fill="#6ca1f1" fill-opacity="1"><g transform="translate(111.48097, 264.718372)"><g><path d="M 2.171875 -29.9375 L 10.859375 -29.9375 C 15.015625 -29.9375 18.566406 -28.515625 21.515625 -25.671875 C 24.472656 -22.835938 25.953125 -19.273438 25.953125 -14.984375 C 25.953125 -10.679688 24.476562 -7.109375 21.53125 -4.265625 C 18.59375 -1.421875 15.035156 0 10.859375 0 L 2.171875 0 Z M 9 -6.09375 L 10.046875 -6.09375 C 12.546875 -6.09375 14.585938 -6.929688 16.171875 -8.609375 C 17.753906 -10.296875 18.554688 -12.410156 18.578125 -14.953125 C 18.578125 -17.492188 17.785156 -19.609375 16.203125 -21.296875 C 14.617188 -22.992188 12.566406 -23.84375 10.046875 -23.84375 L 9 -23.84375 Z M 9 -6.09375 "/></g></g></g><g fill="#6ca1f1" fill-opacity="1"><g transform="translate(134.707441, 264.718372)"><g><path d="M 2.796875 -29 C 3.546875 -29.75 4.441406 -30.125 5.484375 -30.125 C 6.523438 -30.125 7.421875 -29.75 8.171875 -29 C 8.921875 -28.25 9.296875 -27.351562 9.296875 -26.3125 C 9.296875 -25.269531 8.921875 -24.375 8.171875 -23.625 C 7.421875 -22.875 6.523438 -22.5 5.484375 -22.5 C 4.441406 -22.5 3.546875 -22.875 2.796875 -23.625 C 2.046875 -24.375 1.671875 -25.269531 1.671875 -26.3125 C 1.671875 -27.351562 2.046875 -28.25 2.796875 -29 Z M 2.171875 -18.625 L 2.171875 0 L 8.609375 0 L 8.609375 -18.625 Z M 2.171875 -18.625 "/></g></g></g><g fill="#6ca1f1" fill-opacity="1"><g transform="translate(142.110179, 264.718372)"><g><path d="M 2.171875 0 L 2.171875 -18.625 L 8.609375 -18.625 L 8.609375 -16.65625 L 8.671875 -16.65625 C 10.335938 -18.332031 12.117188 -19.171875 14.015625 -19.171875 C 14.929688 -19.171875 15.84375 -19.046875 16.75 -18.796875 C 17.65625 -18.554688 18.523438 -18.179688 19.359375 -17.671875 C 20.191406 -17.171875 20.867188 -16.453125 21.390625 -15.515625 C 21.910156 -14.585938 22.171875 -13.503906 22.171875 -12.265625 L 22.171875 0 L 15.75 0 L 15.75 -10.53125 C 15.75 -11.5 15.441406 -12.34375 14.828125 -13.0625 C 14.210938 -13.789062 13.40625 -14.15625 12.40625 -14.15625 C 11.445312 -14.15625 10.570312 -13.78125 9.78125 -13.03125 C 9 -12.28125 8.609375 -11.445312 8.609375 -10.53125 L 8.609375 0 Z M 2.171875 0 "/></g></g></g><g fill="#6ca1f1" fill-opacity="1"><g transform="translate(162.542096, 264.718372)"><g><path d="M 21.015625 -8.421875 L 7.515625 -8.421875 C 7.515625 -7.109375 7.9375 -6.140625 8.78125 -5.515625 C 9.625 -4.890625 10.546875 -4.578125 11.546875 -4.578125 C 12.585938 -4.578125 13.410156 -4.710938 14.015625 -4.984375 C 14.617188 -5.265625 15.304688 -5.816406 16.078125 -6.640625 L 20.71875 -4.3125 C 18.789062 -1.070312 15.578125 0.546875 11.078125 0.546875 C 8.265625 0.546875 5.851562 -0.414062 3.84375 -2.34375 C 1.832031 -4.269531 0.828125 -6.585938 0.828125 -9.296875 C 0.828125 -12.003906 1.832031 -14.328125 3.84375 -16.265625 C 5.851562 -18.203125 8.265625 -19.171875 11.078125 -19.171875 C 14.023438 -19.171875 16.421875 -18.316406 18.265625 -16.609375 C 20.117188 -14.898438 21.046875 -12.460938 21.046875 -9.296875 C 21.046875 -8.859375 21.035156 -8.566406 21.015625 -8.421875 Z M 7.6875 -11.984375 L 14.765625 -11.984375 C 14.628906 -12.953125 14.25 -13.691406 13.625 -14.203125 C 13.007812 -14.722656 12.21875 -14.984375 11.25 -14.984375 C 10.1875 -14.984375 9.335938 -14.707031 8.703125 -14.15625 C 8.078125 -13.601562 7.738281 -12.878906 7.6875 -11.984375 Z M 7.6875 -11.984375 "/></g></g></g><g fill="#6ca1f1" fill-opacity="1"><g transform="translate(180.869018, 264.718372)"><g><path d="M 9 -18.578125 L 9 0 L 2.171875 0 L 2.171875 -29.9375 L 9 -29.9375 L 20.90625 -11.359375 L 20.984375 -11.359375 L 20.984375 -29.9375 L 27.796875 -29.9375 L 27.796875 0 L 20.984375 0 L 9.078125 -18.578125 Z M 9 -18.578125 "/></g></g></g><g fill="#6ca1f1" fill-opacity="1"><g transform="translate(207.28927, 264.718372)"><g><path d="M 3.9375 -2.203125 C 1.863281 -4.046875 0.828125 -6.40625 0.828125 -9.28125 C 0.828125 -12.164062 1.90625 -14.535156 4.0625 -16.390625 C 6.21875 -18.242188 8.878906 -19.171875 12.046875 -19.171875 C 15.171875 -19.171875 17.800781 -18.238281 19.9375 -16.375 C 22.082031 -14.507812 23.15625 -12.148438 23.15625 -9.296875 C 23.15625 -6.441406 22.109375 -4.085938 20.015625 -2.234375 C 17.921875 -0.378906 15.265625 0.546875 12.046875 0.546875 C 8.710938 0.546875 6.007812 -0.367188 3.9375 -2.203125 Z M 8.90625 -12.453125 C 8.070312 -11.628906 7.65625 -10.578125 7.65625 -9.296875 C 7.65625 -8.015625 8.050781 -6.96875 8.84375 -6.15625 C 9.644531 -5.34375 10.703125 -4.9375 12.015625 -4.9375 C 13.273438 -4.9375 14.304688 -5.347656 15.109375 -6.171875 C 15.921875 -6.992188 16.328125 -8.035156 16.328125 -9.296875 C 16.328125 -10.578125 15.910156 -11.628906 15.078125 -12.453125 C 14.242188 -13.273438 13.222656 -13.6875 12.015625 -13.6875 C 10.773438 -13.6875 9.738281 -13.273438 8.90625 -12.453125 Z M 8.90625 -12.453125 "/></g></g></g><g fill="#6ca1f1" fill-opacity="1"><g transform="translate(227.72119, 264.718372)"><g><path d="M 13.609375 0 L 9.25 0 L -0.71875 -18.625 L 6.671875 -18.625 L 11.21875 -8.5625 L 15.6875 -18.625 L 20.109375 -18.625 L 24.578125 -8.5625 L 29.109375 -18.625 L 36.515625 -18.625 L 26.53125 0 L 22.171875 0 L 17.890625 -9.625 Z M 13.609375 0 "/></g></g></g></svg>