<svg xmlns="http://www.w3.org/2000/svg" xmlns:xlink="http://www.w3.org/1999/xlink" width="500" zoomAndPan="magnify" viewBox="0 0 375 374.999991" height="500" preserveAspectRatio="xMidYMid meet" version="1.0"><defs><g/><clipPath id="2966cee626"><path d="M 116.703125 140 L 190 140 L 190 187 L 116.703125 187 Z M 116.703125 140 " clip-rule="nonzero"/></clipPath><clipPath id="1814bcc2f1"><path d="M 164 112 L 258.453125 112 L 258.453125 185 L 164 185 Z M 164 112 " clip-rule="nonzero"/></clipPath><clipPath id="7aed996d5f"><path d="M 182 77 L 207 77 L 207 116.75 L 182 116.75 Z M 182 77 " clip-rule="nonzero"/></clipPath></defs><path fill="#ff7f00" d="M 230.519531 180.542969 C 216.902344 174.777344 204.019531 173.34375 190.066406 173.226562 C 175.890625 173.066406 159.921875 174.796875 149.273438 177.121094 C 148.636719 177.261719 148.257812 177.898438 148.417969 178.515625 C 149.210938 181.519531 152.238281 183.347656 155.246094 182.652344 C 165.019531 180.402344 178.238281 178.476562 190.125 178.039062 C 203.742188 177.5 217.199219 178.535156 230.0625 181.855469 C 230.421875 181.957031 230.796875 181.738281 230.898438 181.378906 C 231.019531 181.058594 230.859375 180.683594 230.519531 180.542969 Z M 230.519531 180.542969 " fill-opacity="1" fill-rule="nonzero"/><path fill="#ff7f00" d="M 187.238281 167.199219 C 189.707031 168.351562 194.445312 165.09375 195.976562 161.792969 C 197.511719 158.511719 195.957031 155.109375 193.46875 153.957031 C 191 152.800781 187.339844 153.101562 185.824219 156.382812 C 184.292969 159.703125 184.769531 166.066406 187.238281 167.199219 Z M 187.238281 167.199219 " fill-opacity="1" fill-rule="nonzero"/><g clip-path="url(#2966cee626)"><path fill="#000000" d="M 189.507812 143.617188 L 186.480469 140.890625 C 164.484375 156.5 141.507812 168.433594 117.617188 177.558594 C 117.019531 177.800781 116.742188 178.496094 117.058594 179.070312 C 118.175781 181.140625 121.480469 185.175781 129.285156 182.214844 C 131.691406 181.300781 134.140625 180.226562 136.628906 179.050781 C 136.371094 181.738281 136.730469 184.261719 137.148438 186.191406 C 137.328125 186.984375 138.460938 186.945312 138.601562 186.152344 C 139.4375 181.714844 141.089844 178.257812 142.203125 176.289062 C 160.761719 166.503906 179.632812 151.769531 189.507812 143.617188 Z M 189.507812 143.617188 " fill-opacity="1" fill-rule="nonzero"/></g><g clip-path="url(#1814bcc2f1)"><path fill="#000000" d="M 257.597656 176.308594 C 235.417969 167.457031 208.699219 149.742188 194.625 139.320312 C 195.480469 138.585938 196.097656 138.046875 196.375 137.808594 C 197.210938 137.074219 198.269531 136.636719 199.382812 136.535156 L 205.394531 135.980469 C 206.789062 135.859375 208.121094 135.304688 209.199219 134.410156 C 211.964844 132.121094 217.320312 126.972656 221.363281 118.578125 C 221.582031 118.121094 221.601562 117.585938 221.402344 117.109375 C 221.34375 116.949219 221.101562 116.910156 221.003906 117.066406 C 219.890625 118.699219 215.089844 125.597656 210.691406 129.835938 C 210.492188 130.015625 210.214844 130.054688 209.972656 129.914062 C 209.65625 129.714844 209.617188 129.296875 209.855469 129.019531 C 211.546875 127.171875 217.359375 120.765625 220.347656 115.996094 C 220.464844 115.796875 220.464844 115.535156 220.328125 115.359375 C 220.109375 115.058594 219.648438 115.039062 219.410156 115.339844 C 217.71875 117.503906 212.066406 124.984375 208.601562 128.066406 C 208.339844 128.285156 207.964844 128.285156 207.703125 128.066406 C 207.425781 127.804688 207.40625 127.390625 207.664062 127.109375 C 209.496094 125.160156 215.964844 117.964844 218.554688 114.421875 C 218.753906 114.144531 218.695312 113.726562 218.394531 113.527344 C 218.117188 113.347656 217.757812 113.390625 217.539062 113.648438 C 215.988281 115.597656 209.953125 123.132812 206.25 126.136719 C 206.070312 126.273438 205.792969 126.253906 205.632812 126.097656 C 205.476562 125.917969 205.476562 125.640625 205.632812 125.480469 C 207.226562 123.808594 214.511719 115.996094 216.78125 112.933594 C 216.882812 112.792969 216.863281 112.574219 216.703125 112.472656 C 216.226562 112.15625 215.609375 112.234375 215.230469 112.652344 C 213 115.121094 205.554688 123.292969 200.257812 128.34375 C 199.621094 128.941406 199.105469 129.65625 198.746094 130.472656 L 198.625 130.75 C 198.089844 131.902344 197.332031 132.855469 196.375 133.613281 C 194.824219 134.804688 193.25 135.980469 191.679688 137.132812 C 189.070312 135.144531 187.078125 133.535156 185.945312 132.5 C 185.265625 131.882812 184.910156 130.96875 184.96875 130.054688 C 185.089844 127.867188 184.628906 123.390625 179.890625 119.253906 C 173.28125 113.488281 168.125 112.175781 165.855469 113.785156 C 161.933594 116.570312 165.539062 134.089844 180.230469 134.167969 C 181.484375 134.167969 182.679688 134.648438 183.636719 135.460938 C 186.0625 137.53125 213.199219 162.765625 235.097656 175.273438 C 236.132812 177.320312 237.386719 180.304688 238.066406 183.945312 C 238.226562 184.738281 239.339844 184.757812 239.519531 183.984375 C 239.898438 182.332031 240.195312 180.226562 240.117188 177.9375 C 242.066406 178.894531 243.957031 179.726562 245.75 180.402344 C 253.59375 183.289062 256.878906 179.886719 258.113281 177.859375 C 258.433594 177.28125 258.191406 176.546875 257.597656 176.308594 Z M 257.597656 176.308594 " fill-opacity="1" fill-rule="nonzero"/></g><g clip-path="url(#7aed996d5f)"><path fill="#ff7f00" d="M 206.011719 102.710938 C 204.929688 105.847656 203.316406 106.429688 203.265625 106.445312 C 205.242188 103.257812 203.925781 99.414062 200.300781 95.457031 C 196.710938 91.546875 200.757812 87.308594 200.847656 87.21875 C 193.375 90.625 195.675781 97.4375 195.675781 97.4375 C 193.464844 94.910156 193.195312 92.421875 195.246094 87.328125 C 197.679688 81.261719 192.433594 77.121094 192.28125 77 C 192.28125 77 192.28125 77.003906 192.28125 77.003906 C 192.28125 77 195.601562 80.6875 190.039062 86.804688 C 186.972656 90.175781 182.527344 95.984375 188.023438 106.066406 C 184.265625 103.207031 183.710938 99.25 183.710938 99.25 C 179.585938 108.34375 183.777344 113.792969 187.617188 116.644531 C 187.179688 114.816406 187.417969 113.269531 187.417969 113.269531 C 188.019531 115.019531 188.917969 115.339844 188.945312 115.351562 C 187.84375 113.574219 188.578125 111.433594 190.597656 109.230469 C 192.597656 107.050781 190.34375 104.691406 190.292969 104.640625 C 194.453125 106.539062 193.175781 110.332031 193.175781 110.332031 C 194.40625 108.925781 194.554688 107.539062 193.414062 104.703125 C 192.058594 101.324219 194.980469 99.015625 195.066406 98.949219 C 195.066406 98.949219 195.0625 98.953125 195.0625 98.953125 C 195.066406 98.949219 193.214844 101.003906 196.3125 104.410156 C 198.019531 106.289062 200.496094 109.523438 197.4375 115.136719 C 199.527344 113.546875 199.835938 111.34375 199.835938 111.34375 C 200.734375 113.320312 200.925781 114.992188 200.695312 116.386719 C 207.378906 111.625 206.011719 102.710938 206.011719 102.710938 " fill-opacity="1" fill-rule="nonzero"/></g><g fill="#dd6e00" fill-opacity="1"><g transform="translate(141.693848, 218.107397)"><g><path d="M 8.109375 -14.921875 C 8.992188 -14.921875 9.847656 -14.75 10.671875 -14.40625 C 11.503906 -14.070312 12.234375 -13.582031 12.859375 -12.9375 C 14.253906 -11.507812 14.953125 -9.679688 14.953125 -7.453125 C 14.953125 -5.234375 14.253906 -3.410156 12.859375 -1.984375 C 12.234375 -1.335938 11.503906 -0.84375 10.671875 -0.5 C 9.847656 -0.164062 8.992188 0 8.109375 0 L 1.828125 0 L 1.828125 -14.921875 Z M 8.046875 -1.59375 C 9.609375 -1.59375 10.875 -2.171875 11.84375 -3.328125 C 12.789062 -4.441406 13.265625 -5.816406 13.265625 -7.453125 C 13.265625 -9.085938 12.789062 -10.460938 11.84375 -11.578125 C 10.875 -12.734375 9.609375 -13.3125 8.046875 -13.3125 L 3.515625 -13.3125 L 3.515625 -1.59375 Z M 8.046875 -1.59375 "/></g></g></g><g fill="#dd6e00" fill-opacity="1"><g transform="translate(157.558632, 218.107397)"><g><path d="M 1.46875 -11.265625 L 3.15625 -11.265625 L 3.15625 0 L 1.46875 0 Z M 3.21875 -15.359375 L 3.21875 -13.15625 L 1.390625 -13.15625 L 1.390625 -15.359375 Z M 3.21875 -15.359375 "/></g></g></g><g fill="#dd6e00" fill-opacity="1"><g transform="translate(162.178348, 218.107397)"><g><path d="M 3.15625 -11.265625 L 3.15625 -9.515625 C 3.5625 -10.046875 4.054688 -10.5 4.640625 -10.875 C 5.222656 -11.257812 5.890625 -11.453125 6.640625 -11.453125 C 7.390625 -11.453125 8.035156 -11.34375 8.578125 -11.125 C 9.117188 -10.914062 9.59375 -10.601562 10 -10.1875 C 10.9375 -9.269531 11.40625 -8.0625 11.40625 -6.5625 L 11.40625 0 L 9.71875 0 L 9.71875 -6.515625 C 9.71875 -7.546875 9.421875 -8.367188 8.828125 -8.984375 C 8.242188 -9.597656 7.488281 -9.90625 6.5625 -9.90625 C 5.613281 -9.90625 4.804688 -9.59375 4.140625 -8.96875 C 3.484375 -8.320312 3.15625 -7.492188 3.15625 -6.484375 L 3.15625 0 L 1.46875 0 L 1.46875 -11.265625 Z M 3.15625 -11.265625 "/></g></g></g><g fill="#dd6e00" fill-opacity="1"><g transform="translate(174.933268, 218.107397)"><g><path d="M 6.484375 -1.359375 C 8.003906 -1.359375 9.09375 -1.988281 9.75 -3.25 L 11.609375 -3.25 C 11.210938 -2.226562 10.585938 -1.398438 9.734375 -0.765625 C 8.890625 -0.128906 7.800781 0.1875 6.46875 0.1875 C 4.769531 0.1875 3.390625 -0.378906 2.328125 -1.515625 C 1.285156 -2.609375 0.765625 -3.984375 0.765625 -5.640625 C 0.765625 -7.304688 1.257812 -8.675781 2.25 -9.75 C 3.300781 -10.882812 4.671875 -11.453125 6.359375 -11.453125 C 8.035156 -11.453125 9.398438 -10.882812 10.453125 -9.75 C 11.441406 -8.675781 11.9375 -7.304688 11.9375 -5.640625 L 11.9375 -4.953125 L 2.5 -4.953125 C 2.625 -3.921875 3.035156 -3.066406 3.734375 -2.390625 C 4.460938 -1.703125 5.378906 -1.359375 6.484375 -1.359375 Z M 6.359375 -9.90625 C 5.316406 -9.90625 4.441406 -9.582031 3.734375 -8.9375 C 3.078125 -8.320312 2.675781 -7.519531 2.53125 -6.53125 L 10.1875 -6.53125 C 10.03125 -7.519531 9.625 -8.320312 8.96875 -8.9375 C 8.257812 -9.582031 7.390625 -9.90625 6.359375 -9.90625 Z M 6.359375 -9.90625 "/></g></g></g><g fill="#dd6e00" fill-opacity="1"><g transform="translate(187.350153, 218.107397)"><g><path d="M 14.6875 -14.921875 L 14.6875 0 L 12.734375 0 L 3.515625 -12.59375 L 3.515625 0 L 1.828125 0 L 1.828125 -14.921875 L 3.78125 -14.921875 L 13 -2.359375 L 13 -14.921875 Z M 14.6875 -14.921875 "/></g></g></g><g fill="#dd6e00" fill-opacity="1"><g transform="translate(203.665627, 218.107397)"><g><path d="M 6.359375 -11.453125 C 8.035156 -11.453125 9.398438 -10.882812 10.453125 -9.75 C 11.441406 -8.675781 11.9375 -7.304688 11.9375 -5.640625 C 11.9375 -3.960938 11.441406 -2.585938 10.453125 -1.515625 C 9.398438 -0.378906 8.035156 0.1875 6.359375 0.1875 C 4.671875 0.1875 3.300781 -0.378906 2.25 -1.515625 C 1.257812 -2.585938 0.765625 -3.960938 0.765625 -5.640625 C 0.765625 -7.304688 1.257812 -8.675781 2.25 -9.75 C 3.300781 -10.882812 4.671875 -11.453125 6.359375 -11.453125 Z M 6.359375 -1.359375 C 7.566406 -1.359375 8.523438 -1.773438 9.234375 -2.609375 C 9.910156 -3.410156 10.25 -4.421875 10.25 -5.640625 C 10.25 -6.847656 9.910156 -7.851562 9.234375 -8.65625 C 8.523438 -9.488281 7.566406 -9.90625 6.359375 -9.90625 C 5.140625 -9.90625 4.175781 -9.488281 3.46875 -8.65625 C 2.789062 -7.851562 2.453125 -6.847656 2.453125 -5.640625 C 2.453125 -4.421875 2.789062 -3.410156 3.46875 -2.609375 C 4.175781 -1.773438 5.140625 -1.359375 6.359375 -1.359375 Z M 6.359375 -1.359375 "/></g></g></g><g fill="#dd6e00" fill-opacity="1"><g transform="translate(216.285335, 218.107397)"><g><path d="M 8.5 -8.984375 L 5.671875 0 L 3.734375 0 L 0.203125 -11.265625 L 2 -11.265625 L 4.703125 -2.09375 L 7.578125 -11.265625 L 9.421875 -11.265625 L 12.28125 -2.09375 L 14.984375 -11.265625 L 16.78125 -11.265625 L 13.25 0 L 11.3125 0 Z M 8.5 -8.984375 "/></g></g></g><g fill="#000000" fill-opacity="1"><g transform="translate(141.455958, 145.834634)"><g><path d="M 7.15625 -1.6875 C 7.375 -1.6875 7.535156 -1.613281 7.640625 -1.46875 C 7.753906 -1.332031 7.8125 -1.160156 7.8125 -0.953125 C 7.8125 -0.691406 7.726562 -0.457031 7.5625 -0.25 C 7.394531 -0.0390625 7.171875 0.0625 6.890625 0.0625 C 6.410156 0.0625 5.691406 0.0234375 4.734375 -0.046875 C 4.546875 -0.0546875 4.195312 -0.078125 3.6875 -0.109375 C 3.175781 -0.140625 2.773438 -0.15625 2.484375 -0.15625 C 2.347656 -0.15625 2.15625 -0.109375 1.90625 -0.015625 C 1.851562 -0.00390625 1.753906 0.0195312 1.609375 0.0625 C 1.472656 0.101562 1.351562 0.125 1.25 0.125 C 1.09375 0.125 0.957031 0.0507812 0.84375 -0.09375 C 0.738281 -0.238281 0.6875 -0.457031 0.6875 -0.75 C 0.6875 -1.070312 0.757812 -1.320312 0.90625 -1.5 C 1.0625 -1.675781 1.300781 -1.832031 1.625 -1.96875 C 2.300781 -2.269531 2.941406 -2.65625 3.546875 -3.125 C 4.160156 -3.59375 4.648438 -4.097656 5.015625 -4.640625 C 5.378906 -5.179688 5.5625 -5.695312 5.5625 -6.1875 C 5.5625 -6.570312 5.472656 -6.859375 5.296875 -7.046875 C 5.128906 -7.234375 4.851562 -7.328125 4.46875 -7.328125 C 4.03125 -7.328125 3.675781 -7.207031 3.40625 -6.96875 C 3.144531 -6.726562 3.015625 -6.390625 3.015625 -5.953125 C 3.015625 -5.367188 2.71875 -5.078125 2.125 -5.078125 C 1.84375 -5.078125 1.625 -5.15625 1.46875 -5.3125 C 1.3125 -5.46875 1.234375 -5.695312 1.234375 -6 C 1.234375 -6.5 1.363281 -6.957031 1.625 -7.375 C 1.882812 -7.800781 2.273438 -8.140625 2.796875 -8.390625 C 3.316406 -8.648438 3.953125 -8.78125 4.703125 -8.78125 C 5.609375 -8.78125 6.316406 -8.554688 6.828125 -8.109375 C 7.335938 -7.660156 7.59375 -7.035156 7.59375 -6.234375 C 7.59375 -5.460938 7.257812 -4.660156 6.59375 -3.828125 C 5.925781 -3.003906 4.96875 -2.269531 3.71875 -1.625 Z M 7.15625 -1.6875 "/></g></g></g><g fill="#000000" fill-opacity="1"><g transform="translate(149.882185, 145.834634)"><g><path d="M 3.859375 0.078125 C 2.867188 0.078125 2.101562 -0.238281 1.5625 -0.875 C 1.03125 -1.519531 0.765625 -2.441406 0.765625 -3.640625 C 0.765625 -4.648438 0.921875 -5.546875 1.234375 -6.328125 C 1.554688 -7.109375 2 -7.710938 2.5625 -8.140625 C 3.132812 -8.566406 3.796875 -8.78125 4.546875 -8.78125 C 5.523438 -8.78125 6.28125 -8.457031 6.8125 -7.8125 C 7.351562 -7.175781 7.625 -6.265625 7.625 -5.078125 C 7.625 -4.054688 7.46875 -3.15625 7.15625 -2.375 C 6.84375 -1.601562 6.398438 -1 5.828125 -0.5625 C 5.265625 -0.132812 4.609375 0.078125 3.859375 0.078125 Z M 4 -1.609375 C 4.539062 -1.609375 4.96875 -1.910156 5.28125 -2.515625 C 5.59375 -3.117188 5.75 -3.9375 5.75 -4.96875 C 5.75 -5.65625 5.632812 -6.179688 5.40625 -6.546875 C 5.175781 -6.921875 4.835938 -7.109375 4.390625 -7.109375 C 3.847656 -7.109375 3.421875 -6.800781 3.109375 -6.1875 C 2.796875 -5.582031 2.640625 -4.765625 2.640625 -3.734375 C 2.640625 -3.035156 2.753906 -2.503906 2.984375 -2.140625 C 3.210938 -1.785156 3.550781 -1.609375 4 -1.609375 Z M 4 -1.609375 "/></g></g></g><g fill="#000000" fill-opacity="1"><g transform="translate(227.642597, 145.834634)"><g><path d="M 7.15625 -1.6875 C 7.375 -1.6875 7.535156 -1.613281 7.640625 -1.46875 C 7.753906 -1.332031 7.8125 -1.160156 7.8125 -0.953125 C 7.8125 -0.691406 7.726562 -0.457031 7.5625 -0.25 C 7.394531 -0.0390625 7.171875 0.0625 6.890625 0.0625 C 6.410156 0.0625 5.691406 0.0234375 4.734375 -0.046875 C 4.546875 -0.0546875 4.195312 -0.078125 3.6875 -0.109375 C 3.175781 -0.140625 2.773438 -0.15625 2.484375 -0.15625 C 2.347656 -0.15625 2.15625 -0.109375 1.90625 -0.015625 C 1.851562 -0.00390625 1.753906 0.0195312 1.609375 0.0625 C 1.472656 0.101562 1.351562 0.125 1.25 0.125 C 1.09375 0.125 0.957031 0.0507812 0.84375 -0.09375 C 0.738281 -0.238281 0.6875 -0.457031 0.6875 -0.75 C 0.6875 -1.070312 0.757812 -1.320312 0.90625 -1.5 C 1.0625 -1.675781 1.300781 -1.832031 1.625 -1.96875 C 2.300781 -2.269531 2.941406 -2.65625 3.546875 -3.125 C 4.160156 -3.59375 4.648438 -4.097656 5.015625 -4.640625 C 5.378906 -5.179688 5.5625 -5.695312 5.5625 -6.1875 C 5.5625 -6.570312 5.472656 -6.859375 5.296875 -7.046875 C 5.128906 -7.234375 4.851562 -7.328125 4.46875 -7.328125 C 4.03125 -7.328125 3.675781 -7.207031 3.40625 -6.96875 C 3.144531 -6.726562 3.015625 -6.390625 3.015625 -5.953125 C 3.015625 -5.367188 2.71875 -5.078125 2.125 -5.078125 C 1.84375 -5.078125 1.625 -5.15625 1.46875 -5.3125 C 1.3125 -5.46875 1.234375 -5.695312 1.234375 -6 C 1.234375 -6.5 1.363281 -6.957031 1.625 -7.375 C 1.882812 -7.800781 2.273438 -8.140625 2.796875 -8.390625 C 3.316406 -8.648438 3.953125 -8.78125 4.703125 -8.78125 C 5.609375 -8.78125 6.316406 -8.554688 6.828125 -8.109375 C 7.335938 -7.660156 7.59375 -7.035156 7.59375 -6.234375 C 7.59375 -5.460938 7.257812 -4.660156 6.59375 -3.828125 C 5.925781 -3.003906 4.96875 -2.269531 3.71875 -1.625 Z M 7.15625 -1.6875 "/></g></g></g><g fill="#000000" fill-opacity="1"><g transform="translate(236.068824, 145.834634)"><g><path d="M 4.265625 -7.171875 C 3.984375 -7.171875 3.773438 -7.164062 3.640625 -7.15625 C 3.515625 -6.71875 3.367188 -6.117188 3.203125 -5.359375 C 4.492188 -5.285156 5.472656 -5.015625 6.140625 -4.546875 C 6.816406 -4.085938 7.15625 -3.460938 7.15625 -2.671875 C 7.15625 -2.148438 7.019531 -1.679688 6.75 -1.265625 C 6.488281 -0.847656 6.101562 -0.519531 5.59375 -0.28125 C 5.082031 -0.0390625 4.484375 0.078125 3.796875 0.078125 C 2.859375 0.078125 2.101562 -0.101562 1.53125 -0.46875 C 0.96875 -0.832031 0.6875 -1.316406 0.6875 -1.921875 C 0.6875 -2.253906 0.765625 -2.515625 0.921875 -2.703125 C 1.078125 -2.890625 1.296875 -2.984375 1.578125 -2.984375 C 1.796875 -2.984375 1.960938 -2.925781 2.078125 -2.8125 C 2.203125 -2.695312 2.304688 -2.5 2.390625 -2.21875 C 2.554688 -1.601562 3.070312 -1.296875 3.9375 -1.296875 C 4.3125 -1.296875 4.617188 -1.40625 4.859375 -1.625 C 5.097656 -1.851562 5.21875 -2.132812 5.21875 -2.46875 C 5.21875 -3.351562 4.28125 -3.820312 2.40625 -3.875 C 2.007812 -3.882812 1.722656 -3.953125 1.546875 -4.078125 C 1.367188 -4.203125 1.28125 -4.390625 1.28125 -4.640625 C 1.28125 -4.753906 1.296875 -4.878906 1.328125 -5.015625 L 1.484375 -5.734375 C 1.546875 -6.023438 1.648438 -6.472656 1.796875 -7.078125 L 1.765625 -7.078125 C 1.554688 -7.078125 1.390625 -7.125 1.265625 -7.21875 C 1.148438 -7.3125 1.09375 -7.441406 1.09375 -7.609375 C 1.09375 -8.097656 1.335938 -8.421875 1.828125 -8.578125 C 2.273438 -8.710938 3.085938 -8.78125 4.265625 -8.78125 C 5.097656 -8.78125 5.707031 -8.769531 6.09375 -8.75 C 6.476562 -8.726562 6.773438 -8.691406 6.984375 -8.640625 C 7.179688 -8.585938 7.316406 -8.519531 7.390625 -8.4375 C 7.472656 -8.351562 7.515625 -8.222656 7.515625 -8.046875 C 7.515625 -7.703125 7.445312 -7.457031 7.3125 -7.3125 C 7.175781 -7.175781 6.953125 -7.109375 6.640625 -7.109375 C 6.472656 -7.109375 6.160156 -7.113281 5.703125 -7.125 C 4.859375 -7.15625 4.378906 -7.171875 4.265625 -7.171875 Z M 4.265625 -7.171875 "/></g></g></g></svg>