<svg xmlns="http://www.w3.org/2000/svg" xmlns:xlink="http://www.w3.org/1999/xlink" width="500" zoomAndPan="magnify" viewBox="0 0 375 374.999991" height="500" preserveAspectRatio="xMidYMid meet" version="1.0"><defs><g/><clipPath id="d0e615a392"><path d="M 56.742188 74.332031 L 319.910156 74.332031 L 319.910156 337.5 L 56.742188 337.5 Z M 56.742188 74.332031 " clip-rule="nonzero"/></clipPath><clipPath id="ecffa5040e"><path d="M 188.324219 74.332031 C 115.652344 74.332031 56.742188 133.246094 56.742188 205.917969 C 56.742188 278.589844 115.652344 337.5 188.324219 337.5 C 260.996094 337.5 319.910156 278.589844 319.910156 205.917969 C 319.910156 133.246094 260.996094 74.332031 188.324219 74.332031 Z M 188.324219 74.332031 " clip-rule="nonzero"/></clipPath><clipPath id="2e0231c076"><path d="M 84.753906 91 L 290.253906 91 L 290.253906 168 L 84.753906 168 Z M 84.753906 91 " clip-rule="nonzero"/></clipPath><clipPath id="6d2ff0089c"><path d="M 110 271 L 276 271 L 276 320.492188 L 110 320.492188 Z M 110 271 " clip-rule="nonzero"/></clipPath></defs><g clip-path="url(#d0e615a392)"><g clip-path="url(#ecffa5040e)"><path fill="#b30000" d="M 56.742188 74.332031 L 319.910156 74.332031 L 319.910156 337.5 L 56.742188 337.5 Z M 56.742188 74.332031 " fill-opacity="1" fill-rule="nonzero"/></g></g><path fill="#f5f5f5" d="M 257.4375 151.03125 C 256.980469 149.757812 256.304688 148.554688 255.386719 147.527344 C 254.925781 146.996094 254.429688 146.539062 253.898438 146.113281 C 253.371094 145.6875 252.804688 145.335938 252.238281 145.015625 C 251.070312 144.378906 249.832031 143.953125 248.558594 143.671875 C 248.308594 143.601562 248.027344 143.566406 247.777344 143.53125 C 247.636719 143.175781 247.53125 142.820312 247.390625 142.46875 C 247.105469 141.761719 246.789062 141.015625 246.433594 140.34375 C 245.726562 138.964844 244.949219 137.65625 244.027344 136.382812 C 242.222656 133.871094 239.992188 131.675781 237.445312 129.90625 C 234.898438 128.136719 232.066406 126.828125 229.164062 125.976562 C 227.714844 125.554688 226.226562 125.234375 224.742188 125.023438 C 224.351562 124.953125 224 124.917969 223.609375 124.882812 L 223.042969 124.808594 L 222.476562 124.773438 C 222.089844 124.738281 221.734375 124.703125 221.378906 124.667969 C 221.027344 124.632812 220.671875 124.632812 220.285156 124.597656 C 214.480469 124.28125 208.570312 124.632812 202.800781 125.941406 C 199.9375 126.613281 197.105469 127.5 194.378906 128.703125 C 193.035156 129.304688 191.691406 129.976562 190.382812 130.71875 C 190.382812 130.71875 190.382812 130.71875 190.347656 130.71875 C 200.996094 139.320312 217.167969 141.335938 217.167969 141.335938 C 203.15625 140.910156 192.152344 134.894531 187.761719 132.136719 C 187.550781 132.027344 187.339844 131.921875 187.089844 131.816406 C 185.074219 130.863281 183.023438 129.90625 180.96875 128.949219 L 177.890625 127.5 C 176.828125 127.003906 175.730469 126.542969 174.671875 126.121094 C 172.511719 125.269531 170.28125 124.527344 168.019531 123.890625 C 165.753906 123.253906 163.453125 122.792969 161.152344 122.4375 C 158.816406 122.085938 156.480469 121.875 154.109375 121.875 C 151.738281 121.835938 149.367188 122.015625 147 122.402344 C 144.628906 122.828125 142.292969 123.5 140.027344 124.5625 C 138.929688 125.09375 137.832031 125.730469 136.84375 126.507812 C 135.851562 127.289062 134.894531 128.171875 134.117188 129.164062 C 133.304688 130.152344 132.632812 131.25 132.101562 132.417969 C 131.570312 133.585938 131.214844 134.789062 131.003906 136.027344 C 130.898438 136.628906 130.828125 137.265625 130.757812 137.867188 C 130.71875 138.46875 130.683594 139.070312 130.683594 139.671875 C 130.683594 140.875 130.71875 142.078125 130.898438 143.28125 C 131.074219 144.484375 131.359375 145.6875 131.78125 146.820312 C 132.207031 147.988281 132.738281 149.085938 133.410156 150.113281 C 134.082031 151.136719 134.859375 152.09375 135.746094 152.941406 C 136.628906 153.792969 137.585938 154.5 138.613281 155.136719 C 140.664062 156.375 142.859375 157.222656 145.085938 157.824219 C 147.351562 158.390625 149.617188 158.746094 151.917969 158.886719 C 152.414062 158.921875 152.941406 158.957031 153.4375 158.957031 L 149.015625 181.039062 L 151.597656 180.472656 L 152.800781 180.191406 C 153.226562 180.117188 153.652344 180.011719 154.039062 179.941406 C 154.890625 179.765625 155.703125 179.625 156.550781 179.480469 C 158.214844 179.199219 159.914062 178.914062 161.613281 178.703125 C 163.3125 178.457031 165.011719 178.242188 166.671875 178.03125 C 168.371094 177.820312 170.070312 177.640625 171.769531 177.464844 C 178.5625 176.792969 185.390625 176.472656 192.222656 176.367188 C 193.070312 176.367188 193.921875 176.367188 194.769531 176.367188 L 197.316406 176.367188 C 199.015625 176.367188 200.75 176.402344 202.449219 176.472656 C 204.148438 176.507812 205.882812 176.582031 207.578125 176.6875 L 210.128906 176.828125 C 210.976562 176.863281 211.824219 176.933594 212.675781 177.003906 C 213.523438 177.074219 214.375 177.148438 215.222656 177.21875 L 217.769531 177.429688 C 219.46875 177.570312 221.167969 177.75 222.867188 177.960938 C 223.714844 178.066406 224.566406 178.136719 225.414062 178.277344 L 226.6875 178.421875 L 227.960938 178.597656 C 229.660156 178.808594 231.359375 179.058594 233.058594 179.304688 L 234.898438 179.589844 L 234.507812 177.890625 C 234.4375 177.570312 234.367188 177.183594 234.296875 176.863281 C 234.226562 176.507812 234.15625 176.15625 234.121094 175.800781 C 233.976562 175.09375 233.871094 174.386719 233.800781 173.644531 C 233.625 172.191406 233.445312 170.777344 233.375 169.328125 C 233.375 169.113281 233.375 168.902344 233.339844 168.6875 C 235.359375 169.113281 237.410156 169.363281 239.535156 169.398438 C 240.699219 169.398438 241.902344 169.363281 243.070312 169.21875 C 244.238281 169.078125 245.441406 168.832031 246.574219 168.476562 C 247.742188 168.125 248.875 167.664062 249.9375 167.097656 C 251.035156 166.53125 252.058594 165.824219 253.015625 165.007812 C 253.972656 164.195312 254.820312 163.273438 255.527344 162.214844 C 256.234375 161.1875 256.835938 160.019531 257.261719 158.78125 C 257.6875 157.542969 257.898438 156.269531 257.933594 154.925781 C 258.109375 153.648438 257.898438 152.304688 257.4375 151.03125 Z M 138.648438 136.097656 C 134.753906 144.945312 140.769531 152.128906 140.769531 152.128906 C 139.035156 150.925781 137.585938 149.367188 136.558594 147.597656 C 136.0625 146.714844 135.640625 145.757812 135.355469 144.769531 C 135.074219 143.777344 134.859375 142.75 134.789062 141.726562 C 134.683594 140.699219 134.683594 139.636719 134.753906 138.574219 C 134.789062 138.042969 134.824219 137.515625 134.894531 136.984375 C 134.96875 136.488281 135.039062 135.957031 135.179688 135.460938 C 135.640625 133.480469 136.523438 131.675781 137.832031 130.222656 C 139.140625 128.773438 140.804688 127.640625 142.679688 126.792969 C 144.554688 125.976562 146.574219 125.445312 148.660156 125.164062 C 150.75 124.882812 152.90625 124.773438 155.03125 124.882812 C 157.191406 124.953125 159.3125 125.199219 161.472656 125.554688 C 163.59375 125.90625 165.71875 126.402344 167.804688 127.003906 C 169.894531 127.605469 171.945312 128.3125 173.960938 129.164062 C 174.953125 129.585938 175.945312 130.011719 176.933594 130.472656 L 179.976562 131.921875 C 181.996094 132.914062 184.046875 133.871094 186.101562 134.859375 C 186.808594 135.179688 187.480469 135.496094 188.1875 135.851562 C 152.058594 121.234375 141.476562 129.660156 138.648438 136.097656 Z M 159.738281 164.796875 L 158.25 175.660156 C 157.402344 175.800781 156.515625 175.90625 155.667969 176.050781 C 154.78125 176.191406 153.933594 176.332031 153.085938 176.507812 C 153.015625 176.507812 152.941406 176.546875 152.871094 176.546875 C 152.871094 176.546875 152.871094 176.507812 152.871094 176.507812 C 153.050781 175.660156 153.191406 174.8125 153.367188 173.960938 L 154.289062 168.867188 C 154.570312 167.167969 154.855469 165.433594 155.136719 163.734375 C 155.382812 162.179688 155.597656 160.621094 155.808594 159.0625 C 157.152344 159.171875 158.464844 159.242188 159.808594 159.242188 C 160.941406 159.242188 162.074219 159.242188 163.207031 159.171875 C 164.335938 159.097656 165.46875 159.027344 166.566406 158.886719 C 201.777344 157.472656 217.203125 165.964844 217.664062 166.210938 C 177.605469 156.585938 159.738281 164.796875 159.738281 164.796875 Z M 197.777344 132.558594 C 196.292969 131.886719 194.769531 131.214844 193.285156 130.507812 C 193.355469 130.472656 193.425781 130.4375 193.460938 130.402344 C 194.628906 129.765625 195.867188 129.199219 197.105469 128.703125 C 199.617188 127.710938 202.234375 126.96875 204.890625 126.4375 C 210.234375 125.410156 215.789062 125.234375 221.273438 125.730469 C 221.628906 125.765625 221.945312 125.800781 222.300781 125.835938 C 222.652344 125.871094 223.007812 125.90625 223.328125 125.941406 L 223.820312 126.011719 L 224.316406 126.085938 C 224.636719 126.121094 224.988281 126.191406 225.308594 126.261719 C 226.617188 126.507812 227.890625 126.828125 229.128906 127.25 C 231.605469 128.066406 233.976562 129.269531 236.03125 130.789062 C 236.878906 131.425781 237.65625 132.101562 238.402344 132.84375 C 221.558594 123.078125 197.777344 132.558594 197.777344 132.558594 Z M 255.527344 156.621094 C 255.492188 157.367188 255.351562 158.074219 255.140625 158.78125 C 255.066406 158.957031 255.03125 159.136719 254.960938 159.3125 L 254.75 159.84375 C 254.574219 160.160156 254.394531 160.515625 254.21875 160.832031 C 253.828125 161.46875 253.335938 162.035156 252.804688 162.53125 C 252.273438 163.027344 251.671875 163.488281 251.035156 163.839844 C 249.761719 164.550781 248.378906 165.007812 247 165.152344 C 248.203125 164.441406 249.371094 163.734375 250.398438 162.886719 C 250.679688 162.671875 250.890625 162.460938 251.140625 162.25 C 251.28125 162.144531 251.386719 162 251.492188 161.894531 C 251.601562 161.789062 251.742188 161.683594 251.8125 161.542969 C 251.917969 161.433594 252.023438 161.292969 252.132812 161.1875 L 252.414062 160.796875 C 252.519531 160.691406 252.589844 160.550781 252.695312 160.410156 L 252.839844 160.230469 L 252.980469 160.019531 C 253.652344 158.957031 254.113281 157.753906 254.394531 156.445312 C 254.539062 155.808594 254.609375 155.136719 254.679688 154.464844 C 254.714844 153.792969 254.75 153.121094 254.714844 152.410156 C 254.890625 152.730469 255.03125 153.046875 255.140625 153.402344 C 255.246094 153.757812 255.351562 154.074219 255.421875 154.429688 C 255.492188 155.171875 255.5625 155.914062 255.527344 156.621094 Z M 255.527344 156.621094 " fill-opacity="1" fill-rule="nonzero"/><g clip-path="url(#2e0231c076)"><path fill="#f5f5f5" d="M 84.753906 157.117188 C 88.929688 146.996094 94.839844 137.585938 102.023438 129.199219 C 105.632812 125.023438 109.558594 121.09375 113.769531 117.484375 L 114.550781 116.8125 L 115.363281 116.140625 L 116.992188 114.832031 C 117.519531 114.371094 118.085938 113.980469 118.652344 113.558594 L 120.316406 112.320312 C 121.449219 111.503906 122.582031 110.726562 123.714844 109.914062 C 124.882812 109.132812 126.050781 108.390625 127.21875 107.648438 C 136.664062 101.773438 147.070312 97.351562 157.898438 94.589844 C 163.3125 93.210938 168.832031 92.253906 174.386719 91.6875 C 179.941406 91.121094 185.570312 91.015625 191.160156 91.300781 C 196.75 91.582031 202.308594 92.289062 207.792969 93.386719 C 213.277344 94.519531 218.65625 96.042969 223.929688 97.988281 C 234.402344 101.878906 244.308594 107.328125 253.085938 114.160156 C 261.898438 120.953125 269.648438 129.09375 275.945312 138.1875 C 282.210938 147.28125 287.164062 157.257812 290.242188 167.734375 C 285.890625 157.71875 280.367188 148.308594 273.574219 139.957031 C 266.851562 131.570312 258.996094 124.136719 250.289062 117.980469 C 232.917969 105.59375 212.074219 98.304688 190.878906 97.316406 C 185.570312 97.03125 180.261719 97.136719 174.988281 97.632812 C 169.714844 98.09375 164.445312 98.941406 159.277344 100.144531 C 148.945312 102.585938 138.929688 106.480469 129.625 111.753906 C 110.976562 122.15625 95.40625 138.042969 84.753906 157.117188 Z M 84.753906 157.117188 " fill-opacity="1" fill-rule="nonzero"/></g><g clip-path="url(#6d2ff0089c)"><path fill="#f5f5f5" d="M 275.519531 271.308594 C 267.3125 284.613281 255.742188 295.972656 242.222656 304.324219 C 228.707031 312.746094 213.136719 317.878906 197.28125 319.578125 L 194.308594 319.859375 C 193.320312 319.929688 192.328125 320.070312 191.335938 320.070312 L 185.355469 320.25 C 183.375 320.179688 181.359375 320.144531 179.375 320.035156 L 176.402344 319.789062 C 175.414062 319.71875 174.421875 319.648438 173.433594 319.503906 C 165.503906 318.550781 157.683594 316.746094 150.183594 314.089844 L 148.765625 313.597656 L 147.386719 313.03125 L 144.628906 311.933594 L 143.953125 311.648438 L 143.28125 311.332031 L 141.9375 310.730469 L 139.25 309.492188 L 136.59375 308.109375 C 135.710938 307.652344 134.824219 307.226562 133.976562 306.695312 L 131.429688 305.210938 C 131.003906 304.960938 130.578125 304.714844 130.152344 304.464844 L 128.914062 303.652344 L 126.4375 302.023438 C 125.625 301.492188 124.847656 300.890625 124.03125 300.289062 C 123.253906 299.6875 122.441406 299.160156 121.660156 298.523438 L 119.363281 296.644531 L 118.230469 295.726562 C 117.839844 295.40625 117.484375 295.089844 117.132812 294.734375 L 114.9375 292.789062 C 114.195312 292.152344 113.523438 291.410156 112.851562 290.738281 C 112.144531 290.0625 111.46875 289.355469 110.796875 288.648438 C 112.390625 289.78125 113.910156 290.984375 115.539062 292.082031 L 117.945312 293.710938 C 118.335938 293.992188 118.722656 294.273438 119.148438 294.523438 L 120.386719 295.300781 L 122.828125 296.824219 C 123.644531 297.320312 124.492188 297.777344 125.339844 298.273438 C 126.191406 298.734375 127.003906 299.265625 127.855469 299.6875 L 130.402344 301.035156 L 131.675781 301.707031 C 132.101562 301.917969 132.558594 302.132812 132.984375 302.34375 L 135.605469 303.582031 C 136.453125 304.007812 137.371094 304.359375 138.222656 304.75 L 140.875 305.882812 L 143.566406 306.871094 L 144.910156 307.367188 L 145.582031 307.617188 L 146.253906 307.828125 L 148.980469 308.710938 L 150.324219 309.171875 L 151.703125 309.5625 C 159.03125 311.683594 166.53125 313.101562 174.070312 313.808594 C 181.605469 314.515625 189.25 314.445312 196.785156 313.632812 C 198.664062 313.527344 200.539062 313.171875 202.414062 312.925781 L 205.207031 312.5 L 208.003906 311.898438 C 209.84375 311.507812 211.71875 311.191406 213.558594 310.625 L 216.320312 309.878906 L 217.699219 309.527344 C 218.160156 309.386719 218.585938 309.242188 219.042969 309.101562 L 221.734375 308.21875 L 223.078125 307.757812 C 223.539062 307.617188 224 307.472656 224.421875 307.296875 L 229.730469 305.246094 L 234.933594 302.875 C 235.816406 302.519531 236.632812 302.023438 237.480469 301.601562 L 240.027344 300.289062 C 253.261719 293 265.292969 283.128906 275.519531 271.308594 Z M 275.519531 271.308594 " fill-opacity="1" fill-rule="nonzero"/></g><g fill="#f8fcfa" fill-opacity="1"><g transform="translate(100.868744, 246.701545)"><g><path d="M 19.578125 -23.265625 C 19.898438 -23.117188 20.085938 -22.890625 20.140625 -22.578125 C 20.191406 -22.253906 20.085938 -21.984375 19.828125 -21.765625 L 17.90625 -20.171875 L 19.171875 -12.546875 C 19.484375 -10.660156 19.296875 -8.910156 18.609375 -7.296875 C 17.960938 -5.921875 17.296875 -4.867188 16.609375 -4.140625 C 15.929688 -3.410156 15.09375 -2.867188 14.09375 -2.515625 C 13.09375 -2.160156 11.804688 -1.867188 10.234375 -1.640625 C 8.671875 -1.421875 6.679688 -1.109375 4.265625 -0.703125 L 4.046875 -0.671875 C 3.546875 -0.585938 3.175781 -0.640625 2.9375 -0.828125 C 2.6875 -0.992188 2.507812 -1.273438 2.40625 -1.671875 C 2.300781 -2.078125 2.171875 -2.757812 2.015625 -3.71875 L -0.21875 -17.15625 L -2.546875 -18.046875 C -2.867188 -18.171875 -3.054688 -18.394531 -3.109375 -18.71875 C -3.160156 -19.03125 -3.054688 -19.304688 -2.796875 -19.546875 L -0.875 -21.109375 L -3.15625 -34.875 C -3.21875 -35.257812 -3.269531 -35.613281 -3.3125 -35.9375 C -3.351562 -36.257812 -3.390625 -36.53125 -3.421875 -36.75 C -3.453125 -37.394531 -3.226562 -37.796875 -2.75 -37.953125 C -2.269531 -38.109375 -1.773438 -38.226562 -1.265625 -38.3125 C 1.210938 -38.75 3.082031 -39.070312 4.34375 -39.28125 C 5.601562 -39.5 6.253906 -39.609375 6.296875 -39.609375 C 8.242188 -39.929688 9.988281 -39.53125 11.53125 -38.40625 C 13.0625 -37.3125 14.125 -36.289062 14.71875 -35.34375 C 15.320312 -34.40625 15.722656 -33.332031 15.921875 -32.125 L 17.25 -24.125 Z M 9.921875 -29.3125 C 9.859375 -29.664062 9.804688 -29.957031 9.765625 -30.1875 C 9.734375 -30.414062 9.679688 -30.597656 9.609375 -30.734375 C 9.203125 -32.460938 8.113281 -33.234375 6.34375 -33.046875 C 5.332031 -32.960938 4.65625 -32.734375 4.3125 -32.359375 C 3.96875 -31.984375 3.898438 -31.304688 4.109375 -30.328125 L 7.359375 -10.765625 C 7.472656 -10.128906 7.601562 -9.566406 7.75 -9.078125 C 7.894531 -8.585938 8.238281 -8.273438 8.78125 -8.140625 C 9.5 -8.015625 10.191406 -8.09375 10.859375 -8.375 C 11.523438 -8.664062 12.050781 -9.109375 12.4375 -9.703125 C 12.832031 -10.304688 12.972656 -10.941406 12.859375 -11.609375 Z M 9.921875 -29.3125 "/></g></g></g><g fill="#f8fcfa" fill-opacity="1"><g transform="translate(128.14289, 242.374309)"><g><path d="M 8.640625 -3.828125 C 8.742188 -2.929688 8.769531 -2.285156 8.71875 -1.890625 C 8.675781 -1.503906 8.472656 -1.242188 8.109375 -1.109375 C 7.742188 -0.984375 7.113281 -0.863281 6.21875 -0.75 C 5.71875 -0.695312 5.28125 -0.644531 4.90625 -0.59375 C 4.53125 -0.550781 4.203125 -0.523438 3.921875 -0.515625 C 3.191406 -0.503906 2.753906 -0.78125 2.609375 -1.34375 C 2.460938 -1.90625 2.347656 -2.566406 2.265625 -3.328125 L -1.625 -35.296875 C -1.78125 -36.617188 -1.765625 -37.398438 -1.578125 -37.640625 C -1.421875 -37.835938 -1.019531 -38.003906 -0.375 -38.140625 C 0.257812 -38.273438 0.925781 -38.382812 1.625 -38.46875 C 2.320312 -38.550781 2.828125 -38.59375 3.140625 -38.59375 C 3.867188 -38.601562 4.296875 -38.335938 4.421875 -37.796875 C 4.546875 -37.253906 4.664062 -36.519531 4.78125 -35.59375 Z M 8.640625 -3.828125 "/></g></g></g><g fill="#f8fcfa" fill-opacity="1"><g transform="translate(141.123413, 240.68225)"><g><path d="M 22.828125 -4.734375 C 22.898438 -3.804688 22.898438 -3.117188 22.828125 -2.671875 C 22.765625 -2.234375 22.523438 -1.953125 22.109375 -1.828125 C 21.703125 -1.710938 21.015625 -1.617188 20.046875 -1.546875 C 19.609375 -1.515625 19.085938 -1.46875 18.484375 -1.40625 C 17.878906 -1.34375 17.304688 -1.378906 16.765625 -1.515625 C 16.234375 -1.648438 15.859375 -1.984375 15.640625 -2.515625 C 15.597656 -2.617188 15.550781 -2.738281 15.5 -2.875 C 15.457031 -3.019531 15.390625 -3.179688 15.296875 -3.359375 L 14.96875 -4.078125 C 13.269531 -8.242188 12.007812 -11.332031 11.1875 -13.34375 C 10.363281 -15.363281 9.972656 -16.300781 10.015625 -16.15625 L 9.234375 -17.90625 C 9.066406 -18.21875 8.84375 -18.332031 8.5625 -18.25 C 8.28125 -18.175781 8.078125 -17.972656 7.953125 -17.640625 C 7.835938 -17.234375 7.828125 -16.453125 7.921875 -15.296875 L 8.828125 -3.609375 C 8.898438 -2.640625 8.90625 -1.953125 8.84375 -1.546875 C 8.789062 -1.140625 8.550781 -0.875 8.125 -0.75 C 7.707031 -0.632812 6.992188 -0.539062 5.984375 -0.46875 L 4.09375 -0.3125 C 3.25 -0.351562 2.765625 -0.675781 2.640625 -1.28125 C 2.523438 -1.894531 2.4375 -2.628906 2.375 -3.484375 L -0.0625 -35.015625 C -0.125 -35.835938 -0.140625 -36.539062 -0.109375 -37.125 C -0.0859375 -37.707031 0.226562 -38.039062 0.84375 -38.125 L 5.96875 -38.515625 C 6.644531 -38.566406 7.117188 -38.226562 7.390625 -37.5 C 7.484375 -37.3125 7.597656 -37.050781 7.734375 -36.71875 C 7.867188 -36.394531 8.03125 -35.984375 8.21875 -35.484375 C 8.394531 -35.078125 8.546875 -34.703125 8.671875 -34.359375 C 8.804688 -34.023438 8.90625 -33.738281 8.96875 -33.5 C 9.238281 -32.789062 9.578125 -31.910156 9.984375 -30.859375 C 10.390625 -29.804688 10.804688 -28.707031 11.234375 -27.5625 C 11.660156 -26.414062 12.054688 -25.378906 12.421875 -24.453125 C 12.785156 -23.523438 13.054688 -22.816406 13.234375 -22.328125 C 13.367188 -22.003906 13.492188 -21.742188 13.609375 -21.546875 C 13.785156 -21.222656 14.023438 -21.09375 14.328125 -21.15625 C 14.628906 -21.21875 14.789062 -21.410156 14.8125 -21.734375 C 14.945312 -22.253906 15.003906 -22.65625 14.984375 -22.9375 C 14.960938 -23.226562 14.914062 -23.828125 14.84375 -24.734375 C 14.5625 -28.753906 14.34375 -31.734375 14.1875 -33.671875 C 14.039062 -35.617188 13.972656 -36.535156 13.984375 -36.421875 C 13.921875 -37.328125 13.921875 -37.96875 13.984375 -38.34375 C 14.046875 -38.726562 14.269531 -38.984375 14.65625 -39.109375 C 15.050781 -39.234375 15.675781 -39.328125 16.53125 -39.390625 C 17 -39.429688 17.445312 -39.46875 17.875 -39.5 C 18.3125 -39.53125 18.726562 -39.523438 19.125 -39.484375 C 19.695312 -39.484375 20.03125 -39.207031 20.125 -38.65625 C 20.226562 -38.101562 20.300781 -37.519531 20.34375 -36.90625 Z M 22.828125 -4.734375 "/></g></g></g><g fill="#f8fcfa" fill-opacity="1"><g transform="translate(168.315768, 238.683375)"><g><path d="M 18.84375 -5.6875 C 18.9375 -5 18.984375 -4.3125 18.984375 -3.625 C 18.984375 -2.9375 18.953125 -2.269531 18.890625 -1.625 C 18.867188 -0.976562 18.585938 -0.609375 18.046875 -0.515625 C 17.503906 -0.429688 16.945312 -0.382812 16.375 -0.375 L 4.640625 -0.109375 C 4.285156 -0.0976562 3.898438 -0.101562 3.484375 -0.125 C 3.066406 -0.15625 2.726562 -0.28125 2.46875 -0.5 C 2.21875 -0.695312 2.078125 -1.007812 2.046875 -1.4375 C 2.015625 -1.875 1.988281 -2.597656 1.96875 -3.609375 L 1.25 -35.046875 C 1.226562 -35.953125 1.257812 -36.601562 1.34375 -37 C 1.425781 -37.394531 1.65625 -37.640625 2.03125 -37.734375 C 2.40625 -37.835938 3.023438 -37.898438 3.890625 -37.921875 L 15.578125 -38.1875 C 16.722656 -38.21875 17.457031 -38.109375 17.78125 -37.859375 C 17.96875 -37.722656 18.09375 -37.375 18.15625 -36.8125 C 18.226562 -36.257812 18.265625 -35.664062 18.265625 -35.03125 C 18.265625 -34.40625 18.25 -33.875 18.21875 -33.4375 C 18.195312 -32.789062 17.921875 -32.421875 17.390625 -32.328125 C 16.867188 -32.242188 16.210938 -32.195312 15.421875 -32.1875 L 10.078125 -32.0625 C 9.171875 -32.007812 8.570312 -31.816406 8.28125 -31.484375 C 7.988281 -31.160156 7.816406 -30.578125 7.765625 -29.734375 C 7.742188 -28.847656 7.753906 -27.953125 7.796875 -27.046875 C 7.835938 -26.148438 7.882812 -25.269531 7.9375 -24.40625 C 7.945312 -23.75 8.117188 -23.226562 8.453125 -22.84375 C 8.773438 -22.570312 9.234375 -22.421875 9.828125 -22.390625 C 10.429688 -22.367188 11.148438 -22.367188 11.984375 -22.390625 C 12.421875 -22.398438 12.800781 -22.410156 13.125 -22.421875 C 13.445312 -22.429688 13.695312 -22.414062 13.875 -22.375 C 14.519531 -22.382812 14.953125 -22.273438 15.171875 -22.046875 C 15.398438 -21.816406 15.535156 -21.382812 15.578125 -20.75 C 15.628906 -20.175781 15.660156 -19.609375 15.671875 -19.046875 C 15.691406 -18.484375 15.671875 -17.910156 15.609375 -17.328125 C 15.628906 -16.609375 15.242188 -16.207031 14.453125 -16.125 C 14.054688 -16.082031 13.550781 -16.050781 12.9375 -16.03125 C 12.320312 -16.019531 11.617188 -16.003906 10.828125 -15.984375 C 9.816406 -15.960938 9.132812 -15.800781 8.78125 -15.5 C 8.425781 -15.207031 8.226562 -14.484375 8.1875 -13.328125 C 8.164062 -12.671875 8.148438 -11.972656 8.140625 -11.234375 C 8.140625 -10.492188 8.171875 -9.710938 8.234375 -8.890625 C 8.328125 -8.035156 8.53125 -7.445312 8.84375 -7.125 C 9.15625 -6.8125 9.765625 -6.644531 10.671875 -6.625 L 15.96875 -6.75 C 16.789062 -6.726562 17.453125 -6.695312 17.953125 -6.65625 C 18.460938 -6.613281 18.757812 -6.289062 18.84375 -5.6875 Z M 18.84375 -5.6875 "/></g></g></g><g fill="#f8fcfa" fill-opacity="1"><g transform="translate(191.377376, 238.113132)"><g><path d="M 25.875 -18.921875 C 26.195312 -18.691406 26.351562 -18.414062 26.34375 -18.09375 C 26.332031 -17.800781 26.160156 -17.554688 25.828125 -17.359375 L 23.671875 -16.171875 L 23.203125 -2.1875 C 23.171875 -1.25 23.097656 -0.566406 22.984375 -0.140625 C 22.867188 0.285156 22.597656 0.535156 22.171875 0.609375 C 21.753906 0.679688 21.0625 0.703125 20.09375 0.671875 C 19.65625 0.660156 19.128906 0.648438 18.515625 0.640625 C 17.910156 0.640625 17.347656 0.539062 16.828125 0.34375 C 16.304688 0.144531 15.96875 -0.222656 15.8125 -0.765625 C 15.78125 -0.867188 15.75 -0.992188 15.71875 -1.140625 C 15.6875 -1.285156 15.640625 -1.453125 15.578125 -1.640625 L 15.3125 -2.40625 C 14.101562 -6.738281 13.195312 -9.945312 12.59375 -12.03125 C 12 -14.125 11.71875 -15.097656 11.75 -14.953125 L 11.171875 -16.765625 C 11.035156 -17.097656 10.820312 -17.238281 10.53125 -17.1875 C 10.238281 -17.144531 10.015625 -16.960938 9.859375 -16.640625 C 9.703125 -16.242188 9.601562 -15.46875 9.5625 -14.3125 L 9.171875 -2.609375 C 9.140625 -1.628906 9.070312 -0.941406 8.96875 -0.546875 C 8.875 -0.160156 8.609375 0.0664062 8.171875 0.140625 C 7.734375 0.210938 7.007812 0.234375 6 0.203125 L 4.109375 0.140625 C 3.273438 0.00390625 2.832031 -0.367188 2.78125 -0.984375 C 2.726562 -1.597656 2.71875 -2.335938 2.75 -3.203125 L 3.203125 -16.859375 L 1.09375 -18.1875 C 0.8125 -18.40625 0.675781 -18.660156 0.6875 -18.953125 C 0.695312 -19.273438 0.847656 -19.539062 1.140625 -19.75 L 3.34375 -20.921875 L 3.8125 -34.8125 C 3.84375 -35.632812 3.898438 -36.332031 3.984375 -36.90625 C 4.078125 -37.488281 4.4375 -37.785156 5.0625 -37.796875 L 10.203125 -37.625 C 10.878906 -37.601562 11.3125 -37.210938 11.5 -36.453125 C 11.5625 -36.265625 11.640625 -36 11.734375 -35.65625 C 11.835938 -35.3125 11.957031 -34.882812 12.09375 -34.375 C 12.21875 -33.9375 12.328125 -33.539062 12.421875 -33.1875 C 12.515625 -32.84375 12.578125 -32.546875 12.609375 -32.296875 C 12.804688 -31.578125 13.046875 -30.664062 13.328125 -29.5625 C 13.617188 -28.46875 13.910156 -27.328125 14.203125 -26.140625 C 14.503906 -24.960938 14.78125 -23.890625 15.03125 -22.921875 C 15.289062 -21.960938 15.488281 -21.226562 15.625 -20.71875 C 15.71875 -20.394531 15.8125 -20.125 15.90625 -19.90625 C 16.039062 -19.570312 16.257812 -19.414062 16.5625 -19.4375 C 16.875 -19.46875 17.054688 -19.644531 17.109375 -19.96875 C 17.304688 -20.46875 17.410156 -20.859375 17.421875 -21.140625 C 17.429688 -21.429688 17.453125 -22.03125 17.484375 -22.9375 C 17.648438 -26.96875 17.765625 -29.957031 17.828125 -31.90625 C 17.890625 -33.851562 17.921875 -34.769531 17.921875 -34.65625 C 17.953125 -35.5625 18.019531 -36.195312 18.125 -36.5625 C 18.226562 -36.9375 18.476562 -37.164062 18.875 -37.25 C 19.28125 -37.332031 19.914062 -37.359375 20.78125 -37.328125 C 21.25 -37.316406 21.695312 -37.300781 22.125 -37.28125 C 22.5625 -37.269531 22.972656 -37.21875 23.359375 -37.125 C 23.929688 -37.070312 24.234375 -36.765625 24.265625 -36.203125 C 24.304688 -35.640625 24.316406 -35.050781 24.296875 -34.4375 L 23.8125 -20.234375 Z M 25.875 -18.921875 "/></g></g></g><g fill="#f8fcfa" fill-opacity="1"><g transform="translate(220.711544, 239.213804)"><g><path d="M 21.765625 -8.25 C 21.734375 -7.957031 21.640625 -7.46875 21.484375 -6.78125 C 21.328125 -6.09375 21.097656 -5.203125 20.796875 -4.109375 C 20.734375 -3.859375 20.644531 -3.628906 20.53125 -3.421875 C 20.425781 -3.222656 20.289062 -3.003906 20.125 -2.765625 C 18.882812 -1.128906 17.460938 0.0195312 15.859375 0.6875 C 14.253906 1.351562 12.640625 1.59375 11.015625 1.40625 C 9.390625 1.21875 7.90625 0.640625 6.5625 -0.328125 C 5.226562 -1.304688 4.203125 -2.644531 3.484375 -4.34375 C 2.972656 -5.507812 2.800781 -6.972656 2.96875 -8.734375 L 4.8125 -28.90625 C 5 -32.082031 6.757812 -34.660156 10.09375 -36.640625 C 10.789062 -37.046875 11.460938 -37.269531 12.109375 -37.3125 C 14.265625 -37.445312 16.054688 -37.285156 17.484375 -36.828125 C 18.910156 -36.367188 20.125 -35.546875 21.125 -34.359375 C 22.1875 -33.222656 22.851562 -31.914062 23.125 -30.4375 C 23.40625 -28.96875 23.476562 -27.515625 23.34375 -26.078125 Z M 14.453125 -6.703125 C 14.710938 -7.179688 14.882812 -7.847656 14.96875 -8.703125 L 16.640625 -26.90625 C 16.679688 -27.300781 16.6875 -27.648438 16.65625 -27.953125 C 16.625 -28.265625 16.585938 -28.554688 16.546875 -28.828125 C 16.335938 -29.734375 15.847656 -30.335938 15.078125 -30.640625 C 14.316406 -30.953125 13.550781 -30.960938 12.78125 -30.671875 C 12.019531 -30.390625 11.523438 -29.789062 11.296875 -28.875 C 11.242188 -28.726562 11.203125 -28.507812 11.171875 -28.21875 C 11.148438 -27.9375 11.125 -27.578125 11.09375 -27.140625 L 9.46875 -9.609375 C 9.414062 -9.066406 9.382812 -8.597656 9.375 -8.203125 C 9.375 -7.804688 9.425781 -7.492188 9.53125 -7.265625 C 9.738281 -6.523438 10.160156 -5.988281 10.796875 -5.65625 C 11.429688 -5.320312 12.101562 -5.238281 12.8125 -5.40625 C 13.519531 -5.582031 14.066406 -6.015625 14.453125 -6.703125 Z M 14.453125 -6.703125 "/></g></g></g><g fill="#f8fcfa" fill-opacity="1"><g transform="translate(245.221812, 241.346712)"><g><path d="M 35.8125 -27.296875 C 35.382812 -25.929688 34.847656 -24.269531 34.203125 -22.3125 C 33.566406 -20.363281 32.878906 -18.257812 32.140625 -16 C 31.410156 -13.75 30.675781 -11.503906 29.9375 -9.265625 C 29.195312 -7.023438 28.519531 -4.941406 27.90625 -3.015625 C 27.289062 -1.097656 26.773438 0.523438 26.359375 1.859375 C 26.328125 2.003906 26.289062 2.109375 26.25 2.171875 L 26.203125 2.484375 C 26.003906 3.109375 25.769531 3.507812 25.5 3.6875 C 25.226562 3.863281 24.789062 3.921875 24.1875 3.859375 C 23.625 3.765625 23.035156 3.671875 22.421875 3.578125 C 21.816406 3.484375 21.210938 3.375 20.609375 3.25 C 19.867188 3.101562 19.503906 2.644531 19.515625 1.875 C 19.585938 0.707031 19.601562 -0.789062 19.5625 -2.625 C 19.539062 -3.707031 19.523438 -4.613281 19.515625 -5.34375 C 19.515625 -6.082031 19.507812 -6.664062 19.5 -7.09375 C 19.519531 -7.707031 19.515625 -8.265625 19.484375 -8.765625 C 19.460938 -9.265625 19.421875 -9.703125 19.359375 -10.078125 C 19.285156 -10.273438 19.148438 -10.398438 18.953125 -10.453125 C 18.765625 -10.503906 18.566406 -10.453125 18.359375 -10.296875 C 18.148438 -10.140625 17.894531 -9.632812 17.59375 -8.78125 C 16.957031 -6.65625 16.414062 -4.875 15.96875 -3.4375 C 15.53125 -2.007812 15.195312 -0.953125 14.96875 -0.265625 C 14.738281 0.535156 14.515625 1.109375 14.296875 1.453125 C 14.078125 1.804688 13.765625 1.992188 13.359375 2.015625 C 12.960938 2.046875 12.335938 1.992188 11.484375 1.859375 C 10.703125 1.734375 9.945312 1.597656 9.21875 1.453125 C 8.488281 1.304688 8.113281 0.828125 8.09375 0.015625 L 8 -4.21875 C 7.976562 -4.539062 7.957031 -5.40625 7.9375 -6.8125 C 7.925781 -8.21875 7.914062 -9.941406 7.90625 -11.984375 C 7.894531 -14.035156 7.882812 -16.21875 7.875 -18.53125 C 7.863281 -20.851562 7.84375 -23.09375 7.8125 -25.25 C 7.78125 -27.40625 7.757812 -29.3125 7.75 -30.96875 C 7.738281 -32.632812 7.734375 -33.8125 7.734375 -34.5 C 7.703125 -35.675781 7.851562 -36.390625 8.1875 -36.640625 C 8.519531 -36.898438 9.21875 -36.929688 10.28125 -36.734375 L 11.125 -36.59375 L 11.125 -36.53125 C 12.40625 -36.332031 13.253906 -36.191406 13.671875 -36.109375 C 14.097656 -36.035156 14.304688 -35.609375 14.296875 -34.828125 L 14.359375 -29.3125 C 14.347656 -29.0625 14.332031 -28.601562 14.3125 -27.9375 C 14.300781 -27.28125 14.296875 -26.609375 14.296875 -25.921875 C 14.304688 -25.234375 14.316406 -24.671875 14.328125 -24.234375 C 14.347656 -23.640625 14.519531 -23.257812 14.84375 -23.09375 C 15.019531 -23.03125 15.210938 -23.082031 15.421875 -23.25 C 15.640625 -23.425781 15.789062 -23.671875 15.875 -23.984375 C 16 -24.359375 16.15625 -24.867188 16.34375 -25.515625 C 16.539062 -26.160156 16.726562 -26.769531 16.90625 -27.34375 C 17.09375 -27.914062 17.203125 -28.296875 17.234375 -28.484375 C 17.671875 -29.859375 18.035156 -31.015625 18.328125 -31.953125 C 18.628906 -32.898438 18.875 -33.628906 19.0625 -34.140625 C 19.28125 -34.867188 19.765625 -35.171875 20.515625 -35.046875 C 21.597656 -34.953125 22.914062 -34.75 24.46875 -34.4375 C 25.007812 -34.351562 25.363281 -33.988281 25.53125 -33.34375 C 25.707031 -32.695312 25.789062 -32.0625 25.78125 -31.4375 C 25.769531 -30.820312 25.757812 -30.460938 25.75 -30.359375 C 25.75 -29.921875 25.738281 -29.265625 25.71875 -28.390625 C 25.707031 -27.515625 25.703125 -26.617188 25.703125 -25.703125 C 25.710938 -24.796875 25.710938 -24.070312 25.703125 -23.53125 C 25.660156 -23.25 25.703125 -22.820312 25.828125 -22.25 C 25.898438 -21.789062 26.117188 -21.550781 26.484375 -21.53125 C 26.847656 -21.507812 27.097656 -21.710938 27.234375 -22.140625 C 27.585938 -23.210938 27.90625 -24.207031 28.1875 -25.125 C 28.476562 -26.039062 28.863281 -27.300781 29.34375 -28.90625 C 29.507812 -29.5 29.671875 -30.019531 29.828125 -30.46875 C 29.992188 -30.914062 30.144531 -31.316406 30.28125 -31.671875 C 30.539062 -32.460938 30.800781 -32.9375 31.0625 -33.09375 C 31.332031 -33.25 31.894531 -33.28125 32.75 -33.1875 C 33.351562 -33.09375 33.921875 -33.003906 34.453125 -32.921875 C 34.984375 -32.835938 35.476562 -32.738281 35.9375 -32.625 C 36.863281 -32.476562 37.195312 -31.921875 36.9375 -30.953125 C 36.914062 -30.816406 36.8125 -30.441406 36.625 -29.828125 C 36.4375 -29.210938 36.164062 -28.367188 35.8125 -27.296875 Z M 35.8125 -27.296875 "/></g></g></g><g fill="#f8fcfa" fill-opacity="1"><g transform="translate(152.415833, 283.859288)"><g><path d="M 17.015625 -20.640625 C 16.960938 -20.304688 16.90625 -19.988281 16.84375 -19.6875 C 16.789062 -19.382812 16.707031 -19.101562 16.59375 -18.84375 C 16.488281 -18.425781 16.273438 -18.234375 15.953125 -18.265625 C 15.628906 -18.296875 15.242188 -18.351562 14.796875 -18.4375 L 13.296875 -18.734375 L 11.796875 -19.015625 C 11.503906 -19.066406 11.195312 -19.117188 10.875 -19.171875 C 10.5625 -19.222656 10.28125 -19.191406 10.03125 -19.078125 C 9.78125 -18.972656 9.59375 -18.691406 9.46875 -18.234375 C 9.414062 -18.085938 9.34375 -17.769531 9.25 -17.28125 C 9.15625 -16.789062 9.015625 -16.15625 8.828125 -15.375 C 8.785156 -15.132812 8.75 -14.914062 8.71875 -14.71875 C 8.6875 -14.519531 8.671875 -14.359375 8.671875 -14.234375 C 8.660156 -13.804688 8.738281 -13.5 8.90625 -13.3125 C 9.070312 -13.125 9.367188 -12.988281 9.796875 -12.90625 C 10.222656 -12.820312 10.804688 -12.691406 11.546875 -12.515625 C 12.128906 -12.390625 12.535156 -12.273438 12.765625 -12.171875 C 13.003906 -12.066406 13.128906 -11.882812 13.140625 -11.625 C 13.160156 -11.363281 13.113281 -10.945312 13 -10.375 C 12.863281 -9.675781 12.734375 -9.128906 12.609375 -8.734375 C 12.492188 -8.335938 12.195312 -8.175781 11.71875 -8.25 C 11.757812 -8.238281 11.613281 -8.257812 11.28125 -8.3125 C 10.957031 -8.375 10.457031 -8.472656 9.78125 -8.609375 C 9.476562 -8.628906 9.222656 -8.660156 9.015625 -8.703125 C 8.804688 -8.742188 8.640625 -8.769531 8.515625 -8.78125 C 8.140625 -8.832031 7.84375 -8.679688 7.625 -8.328125 C 7.414062 -7.972656 7.238281 -7.421875 7.09375 -6.671875 L 5.921875 -0.8125 C 5.785156 -0.15625 5.660156 0.289062 5.546875 0.53125 C 5.429688 0.78125 5.242188 0.90625 4.984375 0.90625 C 4.722656 0.914062 4.265625 0.851562 3.609375 0.71875 C 2.992188 0.59375 2.550781 0.472656 2.28125 0.359375 C 2.007812 0.253906 1.867188 0.0664062 1.859375 -0.203125 C 1.859375 -0.472656 1.921875 -0.925781 2.046875 -1.5625 L 3.859375 -10.578125 L 2.625 -11.65625 C 2.46875 -11.8125 2.40625 -11.988281 2.4375 -12.1875 C 2.488281 -12.40625 2.617188 -12.550781 2.828125 -12.625 L 4.375 -13.15625 L 6.140625 -22 C 6.203125 -22.289062 6.25 -22.523438 6.28125 -22.703125 C 6.320312 -22.890625 6.359375 -23.015625 6.390625 -23.078125 C 6.492188 -23.472656 6.628906 -23.71875 6.796875 -23.8125 C 6.960938 -23.914062 7.234375 -23.929688 7.609375 -23.859375 C 7.742188 -23.847656 8.015625 -23.800781 8.421875 -23.71875 C 8.828125 -23.644531 9.382812 -23.535156 10.09375 -23.390625 L 16.015625 -22.203125 C 16.546875 -22.078125 16.867188 -21.921875 16.984375 -21.734375 C 17.109375 -21.546875 17.117188 -21.179688 17.015625 -20.640625 Z M 17.015625 -20.640625 "/></g></g></g><g fill="#f8fcfa" fill-opacity="1"><g transform="translate(169.256587, 287.065987)"><g><path d="M 14.171875 -5.703125 C 14.148438 -5.515625 14.09375 -5.191406 14 -4.734375 C 13.914062 -4.273438 13.773438 -3.6875 13.578125 -2.96875 C 13.546875 -2.800781 13.492188 -2.648438 13.421875 -2.515625 C 13.359375 -2.378906 13.269531 -2.238281 13.15625 -2.09375 C 12.363281 -1.007812 11.453125 -0.238281 10.421875 0.21875 C 9.390625 0.6875 8.332031 0.867188 7.25 0.765625 C 6.175781 0.671875 5.195312 0.3125 4.3125 -0.3125 C 3.425781 -0.9375 2.734375 -1.800781 2.234375 -2.90625 C 1.890625 -3.65625 1.757812 -4.613281 1.84375 -5.78125 L 2.796875 -19.046875 C 2.867188 -21.109375 3.976562 -22.8125 6.125 -24.15625 C 6.570312 -24.4375 7.015625 -24.59375 7.453125 -24.625 C 8.859375 -24.75 10.03125 -24.664062 10.96875 -24.375 C 11.90625 -24.09375 12.710938 -23.570312 13.390625 -22.8125 C 14.109375 -22.070312 14.566406 -21.222656 14.765625 -20.265625 C 14.972656 -19.316406 15.039062 -18.367188 14.96875 -17.421875 Z M 9.40625 -4.59375 C 9.550781 -4.914062 9.644531 -5.359375 9.6875 -5.921875 L 10.546875 -17.875 C 10.566406 -18.132812 10.566406 -18.363281 10.546875 -18.5625 C 10.523438 -18.757812 10.5 -18.945312 10.46875 -19.125 C 10.332031 -19.726562 10.007812 -20.125 9.5 -20.3125 C 8.988281 -20.507812 8.476562 -20.503906 7.96875 -20.296875 C 7.46875 -20.097656 7.148438 -19.691406 7.015625 -19.078125 C 6.992188 -18.984375 6.972656 -18.84375 6.953125 -18.65625 C 6.941406 -18.46875 6.925781 -18.234375 6.90625 -17.953125 L 6.078125 -6.421875 C 6.054688 -6.066406 6.046875 -5.757812 6.046875 -5.5 C 6.046875 -5.238281 6.078125 -5.035156 6.140625 -4.890625 C 6.296875 -4.398438 6.585938 -4.050781 7.015625 -3.84375 C 7.441406 -3.632812 7.882812 -3.585938 8.34375 -3.703125 C 8.800781 -3.828125 9.15625 -4.125 9.40625 -4.59375 Z M 9.40625 -4.59375 "/></g></g></g><g fill="#f8fcfa" fill-opacity="1"><g transform="translate(187.662818, 288.165346)"><g><path d="M 13.28125 -7.515625 C 13.289062 -7.328125 13.28125 -7 13.25 -6.53125 C 13.226562 -6.0625 13.164062 -5.460938 13.0625 -4.734375 C 13.050781 -4.566406 13.019531 -4.410156 12.96875 -4.265625 C 12.925781 -4.117188 12.859375 -3.960938 12.765625 -3.796875 C 12.128906 -2.617188 11.328125 -1.734375 10.359375 -1.140625 C 9.390625 -0.546875 8.363281 -0.226562 7.28125 -0.1875 C 6.207031 -0.144531 5.1875 -0.375 4.21875 -0.875 C 3.257812 -1.375 2.460938 -2.140625 1.828125 -3.171875 C 1.390625 -3.867188 1.132812 -4.796875 1.0625 -5.953125 L 0.28125 -19.234375 C 0.0820312 -21.296875 0.957031 -23.132812 2.90625 -24.75 C 3.3125 -25.082031 3.726562 -25.296875 4.15625 -25.390625 C 5.539062 -25.691406 6.71875 -25.765625 7.6875 -25.609375 C 8.65625 -25.453125 9.523438 -25.039062 10.296875 -24.375 C 11.097656 -23.726562 11.660156 -22.941406 11.984375 -22.015625 C 12.304688 -21.097656 12.492188 -20.164062 12.546875 -19.21875 Z M 8.71875 -5.78125 C 8.832031 -6.113281 8.875 -6.5625 8.84375 -7.125 L 8.125 -19.09375 C 8.101562 -19.351562 8.066406 -19.582031 8.015625 -19.78125 C 7.972656 -19.976562 7.925781 -20.160156 7.875 -20.328125 C 7.65625 -20.910156 7.28125 -21.265625 6.75 -21.390625 C 6.21875 -21.515625 5.71875 -21.441406 5.25 -21.171875 C 4.78125 -20.898438 4.515625 -20.457031 4.453125 -19.84375 C 4.441406 -19.738281 4.441406 -19.59375 4.453125 -19.40625 C 4.460938 -19.21875 4.476562 -18.984375 4.5 -18.703125 L 5.1875 -7.15625 C 5.207031 -6.800781 5.234375 -6.492188 5.265625 -6.234375 C 5.304688 -5.984375 5.367188 -5.785156 5.453125 -5.640625 C 5.660156 -5.179688 5.988281 -4.878906 6.4375 -4.734375 C 6.882812 -4.585938 7.328125 -4.597656 7.765625 -4.765625 C 8.210938 -4.941406 8.53125 -5.28125 8.71875 -5.78125 Z M 8.71875 -5.78125 "/></g></g></g><g fill="#f8fcfa" fill-opacity="1"><g transform="translate(206.067036, 286.852319)"><g><path d="M 6.875 -25.390625 C 7.90625 -24.703125 8.617188 -24.050781 9.015625 -23.4375 C 9.421875 -22.832031 9.703125 -22.140625 9.859375 -21.359375 L 12.34375 -8.578125 C 12.582031 -7.347656 12.492188 -6.203125 12.078125 -5.140625 C 11.679688 -4.203125 11.265625 -3.488281 10.828125 -3 C 10.398438 -2.507812 9.859375 -2.140625 9.203125 -1.890625 C 8.546875 -1.640625 7.707031 -1.425781 6.6875 -1.25 C 5.664062 -1.082031 4.367188 -0.847656 2.796875 -0.546875 L 2.640625 -0.515625 C 2.316406 -0.453125 2.070312 -0.476562 1.90625 -0.59375 C 1.738281 -0.707031 1.617188 -0.894531 1.546875 -1.15625 C 1.472656 -1.414062 1.375 -1.859375 1.25 -2.484375 L -2.703125 -22.8125 C -2.753906 -23.070312 -2.789062 -23.304688 -2.8125 -23.515625 C -2.84375 -23.722656 -2.875 -23.894531 -2.90625 -24.03125 C -2.9375 -24.457031 -2.789062 -24.722656 -2.46875 -24.828125 C -2.15625 -24.941406 -1.835938 -25.03125 -1.515625 -25.09375 C 0.0976562 -25.4375 1.316406 -25.6875 2.140625 -25.84375 C 2.960938 -26 3.382812 -26.082031 3.40625 -26.09375 C 4.6875 -26.34375 5.84375 -26.109375 6.875 -25.390625 Z M 5.984375 -19.40625 C 5.941406 -19.644531 5.90625 -19.835938 5.875 -19.984375 C 5.84375 -20.128906 5.804688 -20.242188 5.765625 -20.328125 C 5.441406 -21.453125 4.707031 -21.941406 3.5625 -21.796875 C 2.90625 -21.722656 2.46875 -21.554688 2.25 -21.296875 C 2.039062 -21.046875 2.007812 -20.597656 2.15625 -19.953125 L 4.640625 -7.1875 C 4.710938 -6.757812 4.804688 -6.390625 4.921875 -6.078125 C 5.035156 -5.765625 5.265625 -5.570312 5.609375 -5.5 C 6.078125 -5.414062 6.523438 -5.476562 6.953125 -5.6875 C 7.390625 -5.894531 7.734375 -6.195312 7.984375 -6.59375 C 8.234375 -6.988281 8.316406 -7.410156 8.234375 -7.859375 Z M 5.984375 -19.40625 "/></g></g></g></svg>